<svg xmlns="http://www.w3.org/2000/svg" version="1.1" xmlns:xlink="http://www.w3.org/1999/xlink" xmlns:svgjs="http://svgjs.dev/svgjs" width="1440" height="560" preserveAspectRatio="none" viewBox="0 0 1440 560">
    <g mask="url(&quot;#SvgjsMask1018&quot;)" fill="none">
        <rect width="1440" height="560" x="0" y="0" fill="url(&quot;#SvgjsLinearGradient1019&quot;)"></rect>
        <path d="M350.12526050552685 596.1278707972497L296.18913631552266 462.63127889034166 162.69254440861465 516.5674030803459 216.62866859861884 650.0639949872539z" fill="rgba(67, 0, 126, 1)" class="triangle-float1"></path>
        <path d="M1261.206,594.312C1285.793,594.209,1307.15,578.61,1319.117,557.132C1330.754,536.246,1331.4,510.776,1319.206,490.21C1307.244,470.036,1284.646,460.259,1261.206,459.461C1236.046,458.604,1208.862,464.41,1195.932,486.011C1182.738,508.053,1189.186,535.619,1202.447,557.621C1215.222,578.818,1236.457,594.416,1261.206,594.312" fill="rgba(67, 0, 126, 1)" class="triangle-float2"></path>
        <path d="M532.2005932653659-67.11756970482648L420.12833782202154 33.792742349941406 521.0386498767895 145.86499779328577 633.1109053201338 44.954685738517895z" fill="rgba(67, 0, 126, 1)" class="triangle-float1"></path>
        <path d="M436.0748755645023 493.38721705333813L400.0800174983204 367.8582291293322 274.55102957431444 403.8530871955141 310.54588764049635 529.3820751195201z" fill="rgba(67, 0, 126, 1)" class="triangle-float3"></path>
        <path d="M1203.6109721898358 426.5416974467152L1304.4162200596913 444.3163824431752 1280.6756236194535 284.22116814016204z" fill="rgba(67, 0, 126, 1)" class="triangle-float2"></path>
        <path d="M354.43511658657417 620.2753805444504L368.9914522581742 481.78109784684636 230.49716956057017 467.2247621752464 215.94083388897013 605.7190448728504z" fill="rgba(67, 0, 126, 1)" class="triangle-float2"></path>
        <path d="M1252.3657652626825-43.40005864922599L1117.2291784533525 51.223598122597785 1211.8528352251762 186.36018493192788 1346.9894220345063 91.73652816010409z" fill="rgba(67, 0, 126, 1)" class="triangle-float3"></path>
        <path d="M936.066,621.121C977.692,619.502,1016.939,600.532,1038.067,564.63C1059.498,528.214,1058.639,483.728,1038.911,446.362C1017.686,406.162,981.523,371.811,936.066,371.441C890.104,371.067,853.305,404.883,830.28,444.664C807.204,484.534,795.642,533.628,819.328,573.138C842.513,611.813,891.008,622.874,936.066,621.121" fill="rgba(67, 0, 126, 1)" class="triangle-float3"></path>
        <path d="M760.1554227066148-47.41368515538234L684.262649040365 60.9724282822027 792.6487624779501 136.86520194845247 868.5415361441999 28.479088510867413z" fill="rgba(67, 0, 126, 1)" class="triangle-float3"></path>
        <path d="M950.2503106615976 345.7756226104831L1080.515664734191 332.0841821890706 1066.8242243127786 201.8188281164771 936.5588702401851 215.5102685378896z" fill="rgba(67, 0, 126, 1)" class="triangle-float3"></path>
    </g>
    <defs>
        <mask id="SvgjsMask1018">
            <rect width="1440" height="560" fill="#ffffff"></rect>
        </mask>
        <linearGradient x1="15.28%" y1="-39.29%" x2="84.72%" y2="139.29%" gradientUnits="userSpaceOnUse" id="SvgjsLinearGradient1019">
            <stop stop-color="rgba(189, 0, 255, 1)" offset="0"></stop>
            <stop stop-color="rgba(0, 30, 255, 1)" offset="1"></stop>
        </linearGradient>
        <style>
            @keyframes float1 {
                    0%{transform: translate(0, 0)}
                    50%{transform: translate(-10px, 0)}
                    100%{transform: translate(0, 0)}
                }

                .triangle-float1 {
                    animation: float1 5s infinite;
                }

                @keyframes float2 {
                    0%{transform: translate(0, 0)}
                    50%{transform: translate(-5px, -5px)}
                    100%{transform: translate(0, 0)}
                }

                .triangle-float2 {
                    animation: float2 4s infinite;
                }

                @keyframes float3 {
                    0%{transform: translate(0, 0)}
                    50%{transform: translate(0, -10px)}
                    100%{transform: translate(0, 0)}
                }

                .triangle-float3 {
                    animation: float3 6s infinite;
                }
        </style>
    </defs>
</svg>