<svg xmlns="http://www.w3.org/2000/svg" version="1.1" xmlns:xlink="http://www.w3.org/1999/xlink" xmlns:svgjs="http://svgjs.dev/svgjs" width="1440" height="560" preserveAspectRatio="none" viewBox="0 0 1440 560">
    <g mask="url(&quot;#SvgjsMask1010&quot;)" fill="none">
        <rect width="1440" height="560" x="0" y="0" fill="url(&quot;#SvgjsLinearGradient1011&quot;)"></rect>
        <path d="M1127.749300405324 365.0913830231306L1222.4131552270808 463.1186743113293 1320.4404465152795 368.4548194895725 1225.7765916935227 270.42752820137383z" fill="rgba(0, 243, 255, 1)" class="triangle-float2"></path>
        <path d="M96.01926029218696 454.52406098857625L257.01437762041553 392.89980150175734 141.5771578260512 296.03647294817563z" fill="rgba(0, 243, 255, 1)" class="triangle-float2"></path>
        <path d="M1090.754176040787 35.137529631123684L956.9228292399675-27.26905228329582 894.5162473255481 106.5622945175235 1028.3475941263673 168.968876431943z" fill="rgba(0, 243, 255, 1)" class="triangle-float1"></path>
        <path d="M147.66474837489494 27.430774191391492L226.22916585736994 65.74920089928803 264.5475925652664-12.815216583186952 185.9831750827915-51.13364329108349z" fill="rgba(0, 243, 255, 1)" class="triangle-float3"></path>
        <path d="M152.28551469196856 181.5320884475663L7.463305706650374 231.39837401881806 57.329591277902125 376.22058300413624 202.1518002632203 326.3542974328845z" fill="rgba(0, 243, 255, 1)" class="triangle-float3"></path>
        <path d="M1272.12,492.085C1302.404,491.051,1329.292,474.637,1345.023,448.738C1361.441,421.71,1366.485,388.637,1352.047,360.501C1336.329,329.872,1306.547,306.587,1272.12,306.673C1237.816,306.759,1209.57,330.929,1192.879,360.898C1176.681,389.981,1172.837,425.537,1190.048,454.031C1206.758,481.696,1239.819,493.188,1272.12,492.085" fill="rgba(0, 243, 255, 1)" class="triangle-float1"></path>
        <path d="M700.086,143.477C722.767,141.578,735.361,119.859,746.844,100.208C758.487,80.284,772.253,58.134,762.055,37.434C751.033,15.063,725.025,5.268,700.086,5.302C675.212,5.336,651.235,16.29,638.41,37.603C625.189,59.573,624.557,87.211,637.464,109.367C650.288,131.38,674.699,145.603,700.086,143.477" fill="rgba(0, 243, 255, 1)" class="triangle-float1"></path>
        <path d="M-62.170735423310326 356.436735479168L-41.52464458782826 486.7910227638112 68.18355186133286 335.79064464368594z" fill="rgba(0, 243, 255, 1)" class="triangle-float2"></path>
        <path d="M1275.1557311819597 474.72134685416916L1201.2631794836557 430.32222249920017 1171.6107688003542 563.3606122241408z" fill="rgba(0, 243, 255, 1)" class="triangle-float3"></path>
        <path d="M691.8687061134596 81.13965859020567L654.5199868250405 161.23424557638907 734.614573811224 198.58296486480808 771.9632930996429 118.48837787862468z" fill="rgba(0, 243, 255, 1)" class="triangle-float2"></path>
    </g>
    <defs>
        <mask id="SvgjsMask1010">
            <rect width="1440" height="560" fill="#ffffff"></rect>
        </mask>
        <linearGradient x1="15.28%" y1="-39.29%" x2="84.72%" y2="139.29%" gradientUnits="userSpaceOnUse" id="SvgjsLinearGradient1011">
            <stop stop-color="rgba(189, 0, 255, 1)" offset="0"></stop>
            <stop stop-color="rgba(0, 30, 255, 1)" offset="1"></stop>
        </linearGradient>
        <style>
            @keyframes float1 {
                    0%{transform: translate(0, 0)}
                    50%{transform: translate(-10px, 0)}
                    100%{transform: translate(0, 0)}
                }

                .triangle-float1 {
                    animation: float1 5s infinite;
                }

                @keyframes float2 {
                    0%{transform: translate(0, 0)}
                    50%{transform: translate(-5px, -5px)}
                    100%{transform: translate(0, 0)}
                }

                .triangle-float2 {
                    animation: float2 4s infinite;
                }

                @keyframes float3 {
                    0%{transform: translate(0, 0)}
                    50%{transform: translate(0, -10px)}
                    100%{transform: translate(0, 0)}
                }

                .triangle-float3 {
                    animation: float3 6s infinite;
                }
        </style>
    </defs>
</svg>